<svg xmlns="http://www.w3.org/2000/svg" width="42.5" height="42.5" viewBox="0 0 42.5 42.5"><defs><style>.a{fill:#fff;}</style></defs><g transform="translate(10.091 5.34)"><path class="a" d="M152.761,64.8a1.6,1.6,0,0,0-2.265,0L131.281,83.96l-6.933-7.53a1.6,1.6,0,1,0-2.357,2.17l8.062,8.756a1.6,1.6,0,0,0,1.144.516h.034a1.6,1.6,0,0,0,1.131-.467l20.4-20.342A1.6,1.6,0,0,0,152.761,64.8Z" transform="translate(-121.568 -64.327)"/></g><path class="a" d="M40.9,19.648a1.6,1.6,0,0,0-1.6,1.6A18.046,18.046,0,1,1,21.25,3.2a1.6,1.6,0,1,0,0-3.2A21.25,21.25,0,1,0,42.5,21.25,1.6,1.6,0,0,0,40.9,19.648Z"/></svg>